<?xml version="1.0" encoding="UTF-8"?>
<svg width="52px" height="52px" viewBox="0 0 52 52" version="1.1" xmlns="http://www.w3.org/2000/svg" xmlns:xlink="http://www.w3.org/1999/xlink">
    <!-- Generator: Sketch 49.3 (51167) - http://www.bohemiancoding.com/sketch -->
    <title>Group 9</title>
    <desc>Created with Sketch.</desc>
    <defs></defs>
    <g id="Find-File" stroke="none" stroke-width="1" fill="none" fill-rule="evenodd">
        <g id="Title---Find-and-Open-File-Copy" transform="translate(-1130.000000, -323.000000)">
            <g id="DSK/NAV/Activities/60/People" transform="translate(1130.000000, 323.000000)">
                <g id="Group-9">
                    <path d="M26,52 C40.3594035,52 52,40.3594035 52,26 C52,11.6405965 40.3594035,0 26,0 C11.6405965,0 0,11.6405965 0,26 C0,40.3594035 11.6405965,52 26,52 Z" id="circle-6" fill="#FFB400"></path>
                    <g id="icon" transform="translate(15.600000, 17.333333)" fill="#FFFFFF">
                        <path d="M18.6340553,16.4666667 L2.16594469,16.4666667 C1.44945018,16.4666667 0.866377874,15.8834 0.866377874,15.1666667 L0.866377874,6.9342 L19.9336221,6.9342 L19.9336221,15.1666667 C19.9336221,15.8834 19.3505498,16.4666667 18.6340553,16.4666667 M2.16594469,0.866666667 L6.79413529,0.866666667 C7.13635455,0.866666667 7.47077641,1.00533333 7.71336221,1.248 L8.43072309,1.9656 C8.83965345,2.37466667 9.38373875,2.6 9.96247917,2.6 L18.6340553,2.6 C19.3505498,2.6 19.9336221,3.18326667 19.9336221,3.90086667 L19.9336221,6.06753333 L0.866377874,6.06753333 L0.866377874,2.16666667 C0.866377874,1.44993333 1.44945018,0.866666667 2.16594469,0.866666667 M18.6340553,1.73333333 L9.96247917,1.73333333 C9.62025991,1.73333333 9.28497168,1.59466667 9.04325225,1.35286667 L8.32589137,0.635266667 C7.91609464,0.225333333 7.37200933,0 6.79413529,0 L2.16594469,0 C0.972075975,0 0,0.9724 0,2.16666667 L0,15.1666667 C0,16.3609333 0.972075975,17.3333333 2.16594469,17.3333333 L18.6340553,17.3333333 C19.827924,17.3333333 20.8,16.3609333 20.8,15.1666667 L20.8,3.90086667 C20.8,2.70573333 19.827924,1.73333333 18.6340553,1.73333333" id="fill"></path>
                    </g>
                </g>
            </g>
        </g>
    </g>
</svg>