<?xml version="1.0" encoding="UTF-8"?>
<svg width="52px" height="52px" viewBox="0 0 52 52" version="1.1" xmlns="http://www.w3.org/2000/svg" xmlns:xlink="http://www.w3.org/1999/xlink">
    <!-- Generator: Sketch 49.3 (51167) - http://www.bohemiancoding.com/sketch -->
    <title>Group 12</title>
    <desc>Created with Sketch.</desc>
    <defs></defs>
    <g id="Find-File" stroke="none" stroke-width="1" fill="none" fill-rule="evenodd">
        <g id="Title---Find-and-Open-File-Copy" transform="translate(-1058.000000, -323.000000)">
            <g id="DSK/NAV/Activities/60/Files" transform="translate(1058.000000, 323.000000)">
                <g id="Group-12">
                    <path d="M26,52 C40.3594035,52 52,40.3594035 52,26 C52,11.6405965 40.3594035,0 26,0 C11.6405965,0 0,11.6405965 0,26 C0,40.3594035 11.6405965,52 26,52 Z" id="circle-5" fill="#00DBB2"></path>
                    <g id="ICON/24/people_24_white" transform="translate(15.600000, 15.600000)">
                        <rect id="bounds" x="0" y="0" width="20.8" height="20.8"></rect>
                        <g id="icon" transform="translate(0.866667, 0.866667)" fill="#FFFFFF">
                            <path d="M18.1693233,18.148 C18.1511233,18.1714 18.1173233,18.2 18.0653233,18.2 L1.00239001,18.2 C0.950390009,18.2 0.917456676,18.1714 0.898390009,18.148 C0.881923342,18.1272 0.855923342,18.0812667 0.871523342,18.0188667 L1.54059001,15.3044667 C1.99992334,13.4368 3.64139001,12.1333333 5.53332334,12.1333333 L13.53439,12.1333333 C15.4263233,12.1333333 17.06779,13.4368 17.52799,15.3044667 L18.19619,18.0188667 C18.21179,18.0812667 18.1866567,18.1272 18.1693233,18.148 M4.33385668,6.06666667 C4.33385668,3.19886667 6.66692334,0.866666667 9.53385668,0.866666667 C12.4016567,0.866666667 14.7338567,3.19886667 14.7338567,6.06666667 C14.7338567,8.9336 12.4016567,11.2666667 9.53385668,11.2666667 C6.66692334,11.2666667 4.33385668,8.9336 4.33385668,6.06666667 M19.0377233,17.8117333 L18.3686567,15.0973333 C17.8148567,12.8414 15.8267233,11.2666667 13.53439,11.2666667 L12.64259,11.2666667 C14.41059,10.205 15.6005233,8.27406667 15.6005233,6.06666667 C15.6005233,2.72133333 12.87919,0 9.53385668,0 C6.18939001,0 3.46719001,2.72133333 3.46719001,6.06666667 C3.46719001,8.27406667 4.65712334,10.205 6.42599001,11.2666667 L5.53332334,11.2666667 C3.24099001,11.2666667 1.25285668,12.8414 0.699056676,15.0973333 L0.0299900089,17.8117333 C-0.0454099911,18.1176667 0.0230566755,18.4348667 0.216323342,18.6818667 C0.407856676,18.9262667 0.694723342,19.0666667 1.00239001,19.0666667 L18.0653233,19.0666667 C18.37299,19.0666667 18.6598567,18.9262667 18.85139,18.6818667 C19.0455233,18.4348667 19.1131233,18.1176667 19.0377233,17.8117333" id="fill"></path>
                        </g>
                    </g>
                </g>
            </g>
        </g>
    </g>
</svg>