<?xml version="1.0" encoding="UTF-8"?>
<svg width="52px" height="52px" viewBox="0 0 52 52" version="1.1" xmlns="http://www.w3.org/2000/svg" xmlns:xlink="http://www.w3.org/1999/xlink">
    <!-- Generator: Sketch 49.3 (51167) - http://www.bohemiancoding.com/sketch -->
    <title>Group</title>
    <desc>Created with Sketch.</desc>
    <defs></defs>
    <g id="Find-File" stroke="none" stroke-width="1" fill="none" fill-rule="evenodd">
        <g id="Title---Find-and-Open-File-Copy" transform="translate(-1056.000000, -237.000000)">
            <g id="NAV/Activities/60/Whiteboard" transform="translate(1056.000000, 237.000000)">
                <g id="Group">
                    <g id="ICON/24/camera_24_white">
                        <rect id="bounds" x="15.6" y="15.6" width="20.8" height="20.8"></rect>
                        <path d="M26,52 C40.3594035,52 52,40.3594035 52,26 C52,11.6405965 40.3594035,0 26,0 C11.6405965,0 0,11.6405965 0,26 C0,40.3594035 11.6405965,52 26,52 Z" id="circle-2" fill="#33D86A"></path>
                        <g id="icon" transform="translate(16.466667, 19.066667)" fill="#FFFFFF">
                            <path d="M18.2211467,10.2747667 C18.2211467,10.3432333 18.1795467,10.3753 18.14488,10.3900333 C18.1093467,10.4039 18.0582133,10.4099667 18.00968,10.3631667 L14.73368,7.0863 L14.73368,6.78036667 L18.00968,3.50436667 C18.0582133,3.45583333 18.11108,3.46363333 18.14488,3.4775 C18.1795467,3.49136667 18.2211467,3.52343333 18.2211467,3.5919 L18.2211467,10.2747667 Z M13.8670133,11.6805 C13.8670133,12.4085 13.2742133,13.0004333 12.54708,13.0004333 L2.18608,13.0004333 C1.45894667,13.0004333 0.867013333,12.4085 0.867013333,11.6805 L0.867013333,2.18616667 C0.867013333,1.45903333 1.45894667,0.8671 2.18608,0.8671 L12.54708,0.8671 C13.2742133,0.8671 13.8670133,1.45903333 13.8670133,2.18616667 L13.8670133,11.6805 Z M18.4759467,2.6767 C18.1067467,2.5233 17.68208,2.6065 17.3969467,2.89076667 L14.73368,5.5549 L14.73368,2.18616667 C14.73368,0.980633333 13.7526133,0.000433333333 12.54708,0.000433333333 L2.18608,0.000433333333 C0.980546667,0.000433333333 0.000346666667,0.980633333 0.000346666667,2.18616667 L0.000346666667,11.6805 C0.000346666667,12.8860333 0.980546667,13.8671 2.18608,13.8671 L12.54708,13.8671 C13.7526133,13.8671 14.73368,12.8860333 14.73368,11.6805 L14.73368,8.31176667 L17.39608,10.9759 C17.5867467,11.1648333 17.8389467,11.2671 18.09548,11.2671 C18.2237467,11.2671 18.35288,11.2411 18.4759467,11.1908333 C18.8477467,11.0365667 19.0878133,10.6769 19.0878133,10.2747667 L19.0878133,3.5919 C19.0878133,3.18976667 18.8477467,2.8301 18.4759467,2.6767 L18.4759467,2.6767 Z" id="fill"></path>
                        </g>
                    </g>
                </g>
            </g>
        </g>
    </g>
</svg>