<?xml version="1.0" encoding="UTF-8"?>
<svg width="52px" height="52px" viewBox="0 0 52 52" version="1.1" xmlns="http://www.w3.org/2000/svg" xmlns:xlink="http://www.w3.org/1999/xlink">
    <!-- Generator: Sketch 49.3 (51167) - http://www.bohemiancoding.com/sketch -->
    <title>Group 11</title>
    <desc>Created with Sketch.</desc>
    <defs></defs>
    <g id="Find-File" stroke="none" stroke-width="1" fill="none" fill-rule="evenodd">
        <g id="Title---Find-and-Open-File-Copy" transform="translate(-983.000000, -322.000000)">
            <g id="DSK/NAV/Activities/60/ShareScreen" transform="translate(983.000000, 322.000000)">
                <g id="Group-11">
                    <path d="M26,52 C40.3594035,52 52,40.3594035 52,26 C52,11.6405965 40.3594035,0 26,0 C11.6405965,0 0,11.6405965 0,26 C0,40.3594035 11.6405965,52 26,52 Z" id="circle-3" fill="#E061E0"></path>
                    <g id="ICON/24/whiteboard_24_white" transform="translate(15.600000, 15.600000)">
                        <rect id="Rectangle-2" x="0.185714286" y="0.185714286" width="20.8" height="20.8"></rect>
                        <g id="icon" transform="translate(0.185714, 0.185714)" fill="#FFFFFF">
                            <path d="M2.03608446,14.907248 L0.77148059,19.3346489 L5.1971231,18.0696323 L18.8241955,4.40073096 C19.6855832,3.53906211 19.6855832,2.13708324 18.8245095,1.27541439 C18.407162,0.858244787 17.8525828,0.628298891 17.262518,0.628298891 C16.6724533,0.628298891 16.1178741,0.858244787 15.7008406,1.27541439 L2.03608446,14.907248 Z M0.314251079,20.1061614 C0.23197489,20.1061614 0.151896919,20.0738056 0.0922309802,20.0141202 C0.0115249471,19.9333878 -0.0192501161,19.8152735 0.0121530097,19.7056408 L1.45418454,14.6562551 C1.46894401,14.6047372 1.49657876,14.5579313 1.53457654,14.5202352 L15.2571144,0.830915152 C15.7925377,0.295317128 16.5047606,3.14133738e-05 17.262518,3.14133738e-05 C18.0202755,3.14133738e-05 18.7328124,0.295317128 19.2685497,0.831229286 C20.3745678,1.93760831 20.3745678,3.7382229 19.2685497,4.84460193 L5.58432364,18.5709898 C5.54663989,18.609 5.4995352,18.6366437 5.44803407,18.651408 L0.400295644,20.0942243 C0.37203283,20.1020776 0.342827924,20.1061614 0.314251079,20.1061614 L0.314251079,20.1061614 Z" id="Fill-1"></path>
                            <polygon id="Fill-4" points="16.7372694 6.81890106 13.2829255 3.36342994 13.7269657 2.91924483 17.1813095 6.37471596"></polygon>
                        </g>
                    </g>
                </g>
            </g>
        </g>
    </g>
</svg>