<?xml version="1.0" encoding="UTF-8"?>
<svg width="52px" height="52px" viewBox="0 0 52 52" version="1.1" xmlns="http://www.w3.org/2000/svg" xmlns:xlink="http://www.w3.org/1999/xlink">
    <!-- Generator: Sketch 49.3 (51167) - http://www.bohemiancoding.com/sketch -->
    <title>Group 4</title>
    <desc>Created with Sketch.</desc>
    <defs></defs>
    <g id="Find-File" stroke="none" stroke-width="1" fill="none" fill-rule="evenodd">
        <g id="Title---Find-and-Open-File-Copy" transform="translate(-1129.000000, -237.000000)">
            <g id="DSK/NAV/ACTIVITY/60/Meeting" transform="translate(1129.000000, 237.000000)">
                <g id="Group-4">
                    <path d="M26,52 C40.3594035,52 52,40.3594035 52,26 C52,11.6405965 40.3594035,0 26,0 C11.6405965,0 0,11.6405965 0,26 C0,40.3594035 11.6405965,52 26,52 Z" id="circle-1" fill="#FF8642"></path>
                    <g id="meetings_24" transform="translate(15.600000, 14.733333)">
                        <rect id="bounds" x="0" y="0" width="20.8" height="20.8"></rect>
                        <g id="icon" transform="translate(0.866667, 0.866667)" fill="#FFFFFF">
                            <path d="M16.9268667,18.2 L2.1398,18.2 C1.4378,18.2 0.866666667,17.6306 0.866666667,16.9294667 L0.866666667,14.7333333 L18.2,14.7333333 L18.2,16.9294667 C18.2,17.6306 17.6288667,18.2 16.9268667,18.2 M2.1398,2.6 L16.9268667,2.6 C17.6288667,2.6 18.2,3.1694 18.2,3.87053333 L18.2,13.8666667 L0.866666667,13.8666667 L0.866666667,3.87053333 C0.866666667,3.1694 1.4378,2.6 2.1398,2.6 M16.9268667,1.73333333 L14.7333333,1.73333333 L14.7333333,0.433333333 C14.7333333,0.194133333 14.5392,0 14.3,0 C14.0599333,0 13.8666667,0.194133333 13.8666667,0.433333333 L13.8666667,1.73333333 L5.2,1.73333333 L5.2,0.433333333 C5.2,0.194133333 5.00586667,0 4.76666667,0 C4.5266,0 4.33333333,0.194133333 4.33333333,0.433333333 L4.33333333,1.73333333 L2.1398,1.73333333 C0.9594,1.73333333 0,2.69186667 0,3.87053333 L0,16.9294667 C0,18.1081333 0.9594,19.0666667 2.1398,19.0666667 L16.9268667,19.0666667 C18.1064,19.0666667 19.0666667,18.1081333 19.0666667,16.9294667 L19.0666667,3.87053333 C19.0666667,2.69186667 18.1064,1.73333333 16.9268667,1.73333333" id="fill"></path>
                        </g>
                    </g>
                </g>
            </g>
        </g>
    </g>
</svg>