<?xml version="1.0" encoding="UTF-8"?>
<svg width="52px" height="52px" viewBox="0 0 52 52" version="1.1" xmlns="http://www.w3.org/2000/svg" xmlns:xlink="http://www.w3.org/1999/xlink">
    <!-- Generator: Sketch 49.3 (51167) - http://www.bohemiancoding.com/sketch -->
    <title>Group 4</title>
    <desc>Created with Sketch.</desc>
    <defs></defs>
    <g id="Find-File" stroke="none" stroke-width="1" fill="none" fill-rule="evenodd">
        <g id="Title---Find-and-Open-File-Copy" transform="translate(-983.000000, -237.000000)">
            <g id="Group-4" transform="translate(983.000000, 237.000000)">
                <path d="M26,52 C40.3594035,52 52,40.3594035 52,26 C52,11.6405965 40.3594035,0 26,0 C11.6405965,0 0,11.6405965 0,26 C0,40.3594035 11.6405965,52 26,52 Z" id="circle-1" fill="#07C1E4"></path>
                <g id="ICON/24/chat_24_white" transform="translate(15.600000, 15.600000)">
                    <rect id="bounds" x="0" y="0" width="20.8" height="20.8"></rect>
                    <g id="icon" transform="translate(0.866667, 0.866667)" fill="#FFFFFF">
                        <path d="M9.53333333,18.2 C8.02273333,18.2 6.52773333,17.7978667 5.20953333,17.0369333 C5.1428,16.9979333 5.06826667,16.9788667 4.99286667,16.9788667 C4.9556,16.9788667 4.91746667,16.9840667 4.88106667,16.9927333 L1.04606667,18.0206 L2.07393333,14.1856 C2.1034,14.0746667 2.08693333,13.9568 2.02973333,13.8571333 C1.2688,12.5389333 0.866666667,11.0439333 0.866666667,9.53333333 C0.866666667,4.75453333 4.75453333,0.866666667 9.53333333,0.866666667 C14.3121333,0.866666667 18.2,4.75453333 18.2,9.53333333 C18.2,14.3121333 14.3121333,18.2 9.53333333,18.2 M9.53333333,0 C4.277,0 0,4.277 0,9.53333333 C0,11.1358 0.411666667,12.7218 1.18993333,14.1336 L0.0147333333,18.5215333 C-0.0251333333,18.6706 0.0182,18.8309333 0.126533333,18.9401333 C0.208866667,19.0216 0.3198,19.0666667 0.433333333,19.0666667 C0.4706,19.0666667 0.508733333,19.0614667 0.545133333,19.0519333 L4.93306667,17.8767333 C6.34486667,18.655 7.93086667,19.0666667 9.53333333,19.0666667 C14.7896667,19.0666667 19.0666667,14.7896667 19.0666667,9.53333333 C19.0666667,4.277 14.7896667,0 9.53333333,0" id="fill"></path>
                    </g>
                </g>
            </g>
        </g>
    </g>
</svg>