<?xml version="1.0" encoding="UTF-8"?>
<svg width="68px" height="68px" viewBox="0 0 68 68" version="1.1" xmlns="http://www.w3.org/2000/svg" xmlns:xlink="http://www.w3.org/1999/xlink">
    <!-- Generator: Sketch 49.3 (51167) - http://www.bohemiancoding.com/sketch -->
    <title>button</title>
    <desc>Created with Sketch.</desc>
    <defs></defs>
    <g id="Page-1" stroke="none" stroke-width="1" fill="none" fill-rule="evenodd">
        <g id="Screen-1.1" transform="translate(-46.000000, -429.000000)">
            <g id="App">
                <g id="space-ball" transform="translate(0.000000, 76.000000)">
                    <g id="button" transform="translate(46.000000, 353.000000)">
                        <path d="M34,68 C52.7776815,68 68,52.7776815 68,34 C68,15.2223185 52.7776815,0 34,0 C15.2223185,0 0,15.2223185 0,34 C0,52.7776815 15.2223185,68 34,68 Z" id="circle" fill="#8AC6C9"></path>
                        <g id="alerts-and-notifications/info_28_w" transform="translate(20.000000, 20.000000)" fill="#FFFFFF">
                            <g id="info_28_w" transform="translate(1.000000, 1.000000)">
                                <g id="icon">
                                    <path d="M13.5,1 C6.607,1 1,6.607 1,13.5 C1,20.393 6.607,26 13.5,26 C20.393,26 26,20.393 26,13.5 C26,6.607 20.393,1 13.5,1 M13.5,27 C6.056,27 0,20.944 0,13.5 C0,6.056 6.056,0 13.5,0 C20.944,0 27,6.056 27,13.5 C27,20.944 20.944,27 13.5,27 Z M13.5,20 C13.776,20 14,19.776 14,19.5 L14,11.5 C14,11.224 13.776,11 13.5,11 C13.224,11 13,11.224 13,11.5 L13,19.5 C13,19.776 13.224,20 13.5,20 Z M13.5,8.0037 C13.63,8.0037 13.76,7.9437 13.85,7.8537 C13.95,7.7637 14,7.6337 14,7.4937 C14,7.3637 13.939,7.2327 13.85,7.1437 C13.81,7.1037 13.75,7.0637 13.689,7.0337 C13.51,6.9637 13.28,7.0037 13.149,7.1437 C13.05,7.2327 13,7.3637 13,7.4937 C13,7.5637 13.01,7.6337 13.04,7.6937 C13.06,7.7537 13.1,7.8037 13.149,7.8537 C13.24,7.9437 13.37,8.0037 13.5,8.0037 Z" id="fill"></path>
                                </g>
                            </g>
                        </g>
                    </g>
                </g>
            </g>
        </g>
    </g>
</svg>